<svg width="276" height="440" viewBox="0 0 276 440" fill="none" xmlns="http://www.w3.org/2000/svg">
<path opacity="0.2" d="M101.7 305.3V323H16.8V305.3L43.2 303.2C46.2 303 48.1 302.1 48.9 300.5C49.9 298.9 50.4 295.9 50.4 291.5V198.5L18.9 210.5L11.1 195.2L57.6 172.1H74.4V291.5C74.4 295.9 74.8 298.9 75.6 300.5C76.6 302.1 78.6 303 81.6 303.2L101.7 305.3Z" fill="url(#paint0_linear_83_54)" fill-opacity="0.6"/>
<path opacity="0.2" d="M271.68 195.92V203H237.72V195.92L248.28 195.08C249.48 195 250.24 194.64 250.56 194C250.96 193.36 251.16 192.16 251.16 190.4V153.2L238.56 158L235.44 151.88L254.04 142.64H260.76V190.4C260.76 192.16 260.92 193.36 261.24 194C261.64 194.64 262.44 195 263.64 195.08L271.68 195.92Z" fill="url(#paint1_linear_83_54)" fill-opacity="0.6"/>
<path opacity="0.2" d="M183.85 402.5C176.05 402.5 169.35 400.9 163.75 397.7C158.25 394.4 154.05 389.9 151.15 384.2C148.25 378.4 146.8 371.8 146.8 364.4C146.8 357.4 148.35 350.8 151.45 344.6C154.65 338.3 159.35 333.25 165.55 329.45C171.75 325.55 179.25 323.6 188.05 323.6C195.85 323.6 202.5 325.25 208 328.55C213.6 331.75 217.85 336.25 220.75 342.05C223.65 347.75 225.1 354.3 225.1 361.7C225.1 368.8 223.5 375.45 220.3 381.65C217.2 387.85 212.55 392.9 206.35 396.8C200.15 400.6 192.65 402.5 183.85 402.5ZM187.6 390.8C202.1 390.8 209.35 381.55 209.35 363.05C209.35 354.35 207.1 347.55 202.6 342.65C198.1 337.75 192 335.3 184.3 335.3C169.9 335.3 162.7 344.55 162.7 363.05C162.7 371.85 164.9 378.7 169.3 383.6C173.7 388.4 179.8 390.8 187.6 390.8Z" fill="url(#paint2_linear_83_54)" fill-opacity="0.6"/>
<defs>
<linearGradient id="paint0_linear_83_54" x1="56.5" y1="0" x2="56.5" y2="401" gradientUnits="userSpaceOnUse">
<stop stop-color="#AB48FF"/>
<stop offset="1" stop-color="#2F06FF"/>
</linearGradient>
<linearGradient id="paint1_linear_83_54" x1="253.5" y1="74" x2="253.5" y2="235" gradientUnits="userSpaceOnUse">
<stop stop-color="#AB48FF"/>
<stop offset="1" stop-color="#2F06FF"/>
</linearGradient>
<linearGradient id="paint2_linear_83_54" x1="186.5" y1="239" x2="186.5" y2="440" gradientUnits="userSpaceOnUse">
<stop stop-color="#AB48FF"/>
<stop offset="1" stop-color="#2F06FF"/>
</linearGradient>
</defs>
</svg>
