<?xml version="1.0" encoding="utf-8"?>
<!-- Generator: Adobe Illustrator 24.2.3, SVG Export Plug-In . SVG Version: 6.00 Build 0)  -->
<svg version="1.1" id="Layer_1" xmlns="http://www.w3.org/2000/svg" xmlns:xlink="http://www.w3.org/1999/xlink" x="0px" y="0px"
	 viewBox="0 0 397.5 355.7" style="enable-background:new 0 0 397.5 355.7;" xml:space="preserve">
<style type="text/css">
	.st0{fill:#F18800;}
	.st1{fill:#8D5096;}
	.st2{fill:#D73975;}
	.st3{fill-rule:evenodd;clip-rule:evenodd;fill:#83B91E;}
	.st4{fill:#D73775;}
	.st5{fill-rule:evenodd;clip-rule:evenodd;fill:#F18800;}
</style>
<path class="st0" d="M328.8,96.7c-0.2-0.3-0.4-0.6-0.6-0.9c-0.3-0.5-0.6-0.9-0.9-1.4C284.1,27.3,195.3,4.3,124.5,43.6
	C61,79,32.4,153.2,52,220.2l0.1,0c6.2,21.2,16.8,40.5,30.8,56.8l-0.1,0.1c8.7,10.1,18.5,18.8,29.2,26.2c0,0,0,0,0,0
	c0.1,0,0.1,0.1,0.2,0.1c24.7,17.1,54.6,27.1,86.8,27.1c84.3,0,152.9-68.6,152.9-152.9C351.9,147.8,343.4,120.1,328.8,96.7z
	 M115.5,294.7c-0.2-0.1-0.4-0.3-0.6-0.4c-28.3-20.4-49-50.9-56.6-86.1h-0.1c-4.7-21.6-4.3-43.7,0.7-64.6H59
	C74.3,80.5,131.2,33.4,199,33.4c50.5,0,95,26.1,120.7,65.6c0.4,0.6,0.7,1.1,1.1,1.7c0.1,0.2,0.2,0.3,0.3,0.5c1.2,2,2.5,4,3.6,6.1
	c38.6,69.4,13.5,157.2-55.9,195.8c-49.7,27.6-108.8,22.6-152.6-7.9C116,295.1,115.7,294.9,115.5,294.7z"/>
<path class="st1" d="M268.5,208.2c-11.8,26.7-38.5,45.3-69.6,45.3c-41.9,0-76.1-34.1-76.1-76.1s34.1-76.1,76.1-76.1
	c29.8,0,55.6,17.2,68.1,42.2h9.9c-13.1-30.1-43.1-51.2-78-51.2c-46.9,0-85,38.1-85,85s38.1,85,85,85c36,0,66.9-22.5,79.3-54.3
	L268.5,208.2L268.5,208.2z"/>
<path class="st2" d="M199,56.7c-66.6,0-120.7,54.2-120.7,120.7c0,55.2,37.3,101.9,88,116.2v-9.3c-45.7-14-79.1-56.6-79.1-106.9
	c0-61.6,50.1-111.8,111.8-111.8s111.8,50.1,111.8,111.8c0,50.6-33.8,93.4-79.9,107.1v9.3c51.2-14,88.9-60.9,88.9-116.5
	C319.7,110.9,265.5,56.7,199,56.7z"/>
<g>
	<path class="st1" d="M256.5,186.4c0-0.2,0-1.8,0-4.6c0-2.4,0-3.9,0-4.5c0-0.3,0.1-0.6,0.2-0.7c0.1-0.1,0.4-0.2,0.7-0.2
		c0.2,0,0.6,0,1,0c0.4,0,0.7,0,0.9,0c0.2,0,0.4,0,0.5,0.1c0.1,0,0.2,0.1,0.2,0.2c0.1,0.1,0.1,0.2,0.1,0.4c0,3.2,0,6.2,0,9.1
		c0,0.3-0.1,0.5-0.2,0.6c-0.1,0.1-0.3,0.2-0.6,0.2c-0.8,0-1.6,0-2.1,0c-0.3,0-0.5-0.1-0.6-0.2S256.5,186.7,256.5,186.4z
		 M274.4,183.5c1.8,1.1,3.9,1.5,6.2,1.2c0.1,0,0.3,0,0.4-0.1c0.2,0,0.3,0,0.5-0.1c0.2,0,0.3,0,0.4-0.1c1.1-0.2,2-0.6,2.7-1.3
		c1-0.9,2.1-1.4,3.1-1.3c0.6,0,1,0.2,1.2,0.6c0.1,0.2,0.2,0.4,0.2,0.6c0,0.1-0.2,0.4-0.4,0.8c0.5,0.5,0.6,1,0.1,1.5
		c-0.4,0.4-1,0.9-1.7,1.5c-0.2,0.1-0.4,0.3-0.8,0.6c-0.4,0.2-0.7,0.4-0.9,0.6c-1.1,0.9-2.4,1.4-4.1,1.6c-0.9,0.1-2.5,0.3-5,0.7
		c-1.5,0.2-2.8,0.1-3.9-0.4c-0.7-0.3-3.1-1.5-7-3.3c-1.1-0.5-2-0.8-2.7-0.8c-0.5,0-0.8-0.3-0.8-0.9c0-0.7,0-1.7,0-3c0-1.3,0-2.3,0-3
		c0-0.4,0.2-0.7,0.5-0.8c1.1-0.3,2.2-0.6,3.1-0.8c0.9-0.2,1.9-0.2,3-0.2c1.1,0,2.2,0.1,3.1,0.4c0.8,0.2,1.7,0.6,2.5,1
		c0.7,0.4,1.8,0.6,3.2,0.8c0.6,0.1,2,0.3,4.4,0.7c0.2,0,0.4,0.1,0.8,0.3c0.8,0.4,1.2,0.9,1.2,1.6c0,0.4-0.2,0.8-0.5,1.2
		c-0.3,0.4-0.6,0.6-1,0.6c-0.2,0.1-0.8,0.1-1.8,0c-0.4,0-1.2-0.1-2.4-0.1c-1.2-0.1-2.1-0.1-2.8-0.1
		C275.2,183.4,274.9,183.4,274.4,183.5z M267.9,171.7c-0.1-0.2-0.2-0.4-0.2-0.6v-2.6c0-0.2,0.1-0.5,0.2-0.6c0.1-0.2,0.3-0.3,0.6-0.3
		l2.2-0.4c0.1-0.3,0.2-0.6,0.4-1l-1.3-1.8c-0.1-0.2-0.1-0.4-0.1-0.6c0,0,0,0,0-0.1c0-0.2,0.1-0.4,0.3-0.6l1.9-1.9
		c0.1-0.2,0.3-0.3,0.6-0.3c0,0,0.1,0,0.1,0c0.2,0,0.4,0.1,0.6,0.2l1.9,1.3c0.3-0.1,0.6-0.3,0.9-0.4l0.4-2.2c0-0.2,0.1-0.4,0.3-0.6
		c0.2-0.1,0.4-0.2,0.6-0.2h0h2.6c0.2,0,0.4,0.1,0.6,0.2c0.2,0.1,0.3,0.3,0.3,0.6l0.4,2.2c0.3,0.1,0.6,0.3,0.9,0.4l1.9-1.3
		c0.2-0.1,0.4-0.2,0.6-0.2c0,0,0,0,0.1,0c0.2,0,0.5,0.1,0.6,0.3l1.8,1.9c0.2,0.1,0.3,0.3,0.3,0.6c0,0,0,0.1,0,0.1
		c0,0.2-0.1,0.4-0.2,0.6l-1.3,1.9c0.2,0.3,0.3,0.6,0.4,0.9l2.2,0.4c0.1,0,0.2,0.1,0.3,0.1c0.1,0,0.2,0.1,0.3,0.2
		c0.1,0.1,0.1,0.2,0.2,0.3c0.1,0.1,0.1,0.2,0.1,0.4v2.6c0,0.2-0.1,0.5-0.3,0.6c-0.1,0.2-0.3,0.3-0.6,0.3l-2.3,0.4
		c-0.1,0.3-0.2,0.6-0.4,0.9l1.3,1.9c0.1,0.2,0.1,0.4,0.1,0.6c0,0.1,0,0.1,0,0.1c0,0.2-0.1,0.4-0.3,0.6l-1.9,1.9
		c-0.1,0.2-0.3,0.3-0.6,0.3c0,0-0.1,0-0.1,0c-0.2,0-0.4-0.1-0.6-0.2l-1.9-1.3c-0.3,0.1-0.6,0.3-0.9,0.4l-0.1,0.6
		c-1.5-0.3-2.6-0.4-3.4-0.5c-1.2-0.1-2.1-0.3-2.6-0.6c-1-0.5-1.9-0.9-2.8-1.2c-0.8-0.2-1.6-0.4-2.5-0.5c0,0,0.1-0.1,0.1-0.1l1.3-1.9
		c-0.2-0.3-0.3-0.6-0.4-0.9l-2.2-0.4C268.3,172,268.1,171.9,267.9,171.7z M275.5,166.7c-0.8,0.8-1.2,1.8-1.2,3s0.4,2.2,1.2,3
		c0.8,0.8,1.8,1.2,3,1.2c1.2,0,2.2-0.4,3-1.2c0.8-0.8,1.2-1.8,1.2-3s-0.4-2.2-1.2-3c-0.8-0.8-1.8-1.2-3-1.2
		C277.3,165.5,276.3,165.9,275.5,166.7z"/>
</g>
<g>
	<rect x="186.8" y="178.8" class="st3" width="2.6" height="5.3"/>
	<rect x="192.1" y="192" class="st3" width="2.7" height="5.3"/>
	<rect x="176.2" y="165.5" class="st3" width="2.7" height="5.3"/>
	<rect x="181.5" y="192" class="st3" width="2.7" height="5.3"/>
	<rect x="176.2" y="192" class="st3" width="2.7" height="5.3"/>
	<rect x="181.5" y="165.5" class="st3" width="2.7" height="5.3"/>
	<rect x="181.5" y="178.8" class="st3" width="2.7" height="5.3"/>
	<rect x="176.2" y="178.8" class="st3" width="2.7" height="5.3"/>
	<rect x="192.1" y="178.8" class="st3" width="2.7" height="5.3"/>
	<rect x="186.8" y="192" class="st3" width="2.6" height="5.3"/>
	<rect x="209.7" y="171.7" class="st3" width="2.7" height="5.3"/>
	<rect x="209.7" y="158.4" class="st3" width="2.7" height="5.3"/>
	<rect x="209.7" y="184.9" class="st3" width="2.7" height="5.3"/>
	<path class="st3" d="M222.7,138.3c-21.5-13.6-50-7.2-63.6,14.3s-7.2,50,14.3,63.6c21.5,13.6,50,7.2,63.6-14.3
		C250.6,180.3,244.2,151.9,222.7,138.3z M191.2,158.4c0-0.7,0.3-1.4,0.8-1.8c0.5-0.5,1.2-0.8,1.9-0.8h26.5c0.7,0,1.3,0.3,1.8,0.8
		c0.5,0.5,0.8,1.1,0.8,1.8v5.3c0,0.7-0.3,1.4-0.8,1.8c-0.5,0.5-1.1,0.8-1.8,0.8h-12v-1.1c0-1.2-0.5-2.4-1.3-3.2v-3.6h-2.7v2.1
		c-0.3,0-0.6-0.1-0.8-0.1h-1.8v-2h-2.7v2h-2.6v-2l-2.6,0v2h-2.7L191.2,158.4L191.2,158.4z M173.5,178.8c0-0.7,0.3-1.4,0.8-1.8
		c0.5-0.5,1.2-0.8,1.9-0.8h26.5c0.7,0,1.4,0.3,1.8,0.8c0.5,0.5,0.8,1.1,0.8,1.8v5.3c0,0.7-0.3,1.3-0.8,1.8c-0.5,0.5-1.1,0.8-1.8,0.8
		h-26.5c-0.7,0-1.4-0.3-1.8-0.8c-0.5-0.5-0.8-1.1-0.8-1.8L173.5,178.8L173.5,178.8z M205.3,197.3c0,0.7-0.3,1.4-0.8,1.8
		c-0.5,0.5-1.1,0.8-1.8,0.8h-26.5c-0.7,0-1.4-0.3-1.8-0.8c-0.5-0.5-0.8-1.1-0.8-1.8V192c0-0.7,0.3-1.4,0.8-1.8
		c0.5-0.5,1.2-0.8,1.9-0.8l26.5,0c0.7,0,1.4,0.3,1.8,0.8c0.5,0.5,0.8,1.1,0.8,1.8V197.3z M205.3,170.8c0,0.7-0.3,1.4-0.8,1.8
		c-0.5,0.5-1.1,0.8-1.8,0.8h-26.5c-0.7,0-1.4-0.3-1.8-0.8c-0.5-0.5-0.8-1.1-0.8-1.8v-5.3c0-0.7,0.3-1.4,0.8-1.8
		c0.5-0.5,1.2-0.8,1.9-0.8h26.5c0.7,0,1.4,0.3,1.8,0.8c0.5,0.5,0.8,1.1,0.8,1.8L205.3,170.8L205.3,170.8z M223,190.2
		c0,0.7-0.3,1.4-0.8,1.8c-0.5,0.5-1.1,0.8-1.8,0.8h-12v-1.2c0-1.2-0.5-2.3-1.3-3.2v0c-0.1-0.1-0.1-0.1-0.1-0.2l-0.7-0.6
		c0.3-0.2,0.5-0.4,0.7-0.6l0.1-0.1v0c0.8-0.9,1.3-2,1.3-3.3v-1.5h12c0.7,0,1.3,0.3,1.8,0.8c0.5,0.5,0.8,1.1,0.8,1.8V190.2z M223,177
		c0,0.7-0.3,1.4-0.8,1.8c-0.5,0.5-1.1,0.8-1.8,0.8h-12v-1.1c0-1.2-0.5-2.4-1.3-3.3v0l-0.1-0.1c-0.2-0.2-0.5-0.4-0.7-0.6l0.7-0.6
		c0-0.1,0.1-0.1,0.1-0.2c0.9-0.8,1.3-2,1.3-3.2V169h12c0.7,0,1.3,0.3,1.8,0.8c0.5,0.5,0.8,1.1,0.8,1.9V177L223,177z"/>
	<rect x="217.7" y="158.4" class="st3" width="2.7" height="2.7"/>
	<polygon class="st3" points="200.1,168.1 202.7,168.1 202.7,165.5 200.1,165.5 	"/>
	<rect x="186.8" y="165.5" class="st3" width="2.6" height="5.3"/>
	<rect x="192.1" y="165.5" class="st3" width="2.7" height="5.3"/>
</g>
<g>
	<path class="st4" d="M216.1,288.7v11.5c0,0.8-0.3,1.7-0.9,2.2c-0.6,0.6-1.4,0.9-2.2,0.9h-10.8v3.1h3v3h-12.3v-3h3v-3.1h-10.8
		c-0.8,0-1.6-0.3-2.2-0.9c-0.6-0.6-0.9-1.4-0.9-2.2v-18.6c0-0.8,0.3-1.6,0.9-2.2c0.6-0.6,1.4-0.9,2.2-0.9h9.9l-2.7,3h-7.2v18.6H213
		V292l2-2.3c0.3-0.3,0.5-0.6,0.6-1L216.1,288.7z M213.8,281l-2.1,2.4l0.1,1.8c-0.5-0.2-1.1-0.1-1.5,0.3l-6.6,7.4
		c-0.5,0.5-0.4,1.4,0.1,1.8l1.3,1.1c0.5,0.5,1.4,0.4,1.8-0.1l6.6-7.4c0.4-0.4,0.4-1,0.1-1.5l1.8-0.1l2.1-2.4l-3.6,0.2L213.8,281z
		 M203.1,282.3l-2.1,2.4l0.1,1.8c-0.5-0.2-1.1-0.1-1.5,0.3l-6.6,7.4c-0.5,0.5-0.4,1.4,0.1,1.8l1.3,1.1c0.5,0.5,1.4,0.4,1.8-0.1
		l6.6-7.4c0.4-0.4,0.4-1,0.1-1.5l1.8-0.1l2.1-2.4l-3.6,0.2L203.1,282.3z M201.6,273.5l-2.1,2.4l0.1,1.8c-0.5-0.2-1.1-0.1-1.5,0.3
		l-6.6,7.4c-0.5,0.5-0.4,1.4,0.1,1.8l1.3,1.1c0.5,0.5,1.4,0.4,1.8-0.1l6.6-7.4c0.4-0.4,0.4-1,0.1-1.5l1.8-0.1l2.1-2.4l-3.6,0.2
		L201.6,273.5z"/>
</g>
<path class="st5" d="M28,170.9C28,170.9,28,170.9,28,170.9c0.6,0.6,1.5,0.6,2.1,0.1l5.9-5.7c0.3-0.3,0.5-0.7,0.4-1.2
	c0,0,0-0.1,0-0.1c0-0.6-6.3-6.9-6.3-6.9c-0.6-0.6-1.5-0.6-2.1,0c-0.6,0.5-0.6,1.4-0.1,2c0,0,0,0,0,0l3.3,3.4H11.4
	c-0.3,1-0.6,2-0.8,2.9h20.9l-3.5,3.4C27.5,169.4,27.4,170.3,28,170.9z"/>
<path class="st5" d="M36.8,149.7C36.7,149.7,36.7,149.8,36.8,149.7c-0.4,0.4-0.4,1,0,1.3l2,2.2H17.3c-0.3,0.6-0.6,1.2-0.9,1.9h22.4
	l-2.1,2.1c-0.3,0.4-0.4,0.9,0,1.3c0.3,0.4,0.9,0.4,1.2,0c0,0,0,0,0,0l3.5-3.6c0.2-0.2,0.3-0.5,0.3-0.7c0,0,0,0,0-0.1
	c0-0.4-3.8-4.4-3.8-4.4C37.7,149.4,37.1,149.4,36.8,149.7z"/>
<path class="st5" d="M37,192.3c-0.6,0.5-0.6,1.4-0.1,2c0,0,0,0,0.1,0.1l3.3,3.4H12.8c0.3,1,0.6,2,1,2.9h26.7l-3.5,3.4
	c-0.6,0.5-0.6,1.4-0.1,2c0,0,0,0,0.1,0.1c0.6,0.6,1.5,0.6,2.1,0l5.9-5.7c0.3-0.3,0.5-0.7,0.4-1.2c0,0,0-0.1,0-0.1
	c0-0.6-6.3-6.9-6.3-6.9C38.5,191.7,37.6,191.7,37,192.3z"/>
<path class="st5" d="M7.7,135.5h27.9l-2.1,2.1c-0.3,0.4-0.4,0.9,0,1.3c0.3,0.4,0.9,0.4,1.2,0c0,0,0,0,0,0l3.5-3.6
	c0.2-0.2,0.3-0.5,0.3-0.7c0,0,0,0,0-0.1c0-0.4-3.7-4.4-3.7-4.4c-0.3-0.4-0.9-0.4-1.2,0c0,0,0,0,0,0c-0.3,0.4-0.4,0.9,0,1.3l2,2.2
	H8.3C8.1,134.2,7.9,134.9,7.7,135.5z"/>
<path class="st5" d="M24.7,152.1C24.7,152.1,24.7,152.2,24.7,152.1c0.6,0.6,1.6,0.7,2.1,0.1l5.9-5.7c0.3-0.3,0.5-0.7,0.4-1.2
	c0,0,0-0.1,0-0.1c0-0.6-6.3-6.9-6.3-6.9c-0.6-0.6-1.5-0.6-2.1,0c-0.6,0.5-0.6,1.4-0.1,2c0,0,0,0,0.1,0.1l3.3,3.4H5.3
	c-0.2,1-0.5,2-0.7,2.9h23.6l-3.5,3.4C24.2,150.6,24.2,151.5,24.7,152.1z"/>
<path class="st5" d="M15.9,176.9c-0.4,0.4-0.4,1,0,1.3c0.3,0.4,0.9,0.4,1.3,0l3.5-3.6c0.2-0.2,0.3-0.5,0.3-0.7c0,0,0,0,0-0.1
	c0-0.4-3.8-4.4-3.8-4.4c-0.3-0.4-0.9-0.4-1.2,0c0,0,0,0,0,0c-0.4,0.4-0.4,1,0,1.3l2,2.2H1.4c0,0.6,0,1.2-0.1,1.9H18l0,0L15.9,176.9z
	"/>
<path class="st5" d="M32.5,182.2c0.3-0.3,0.5-0.7,0.4-1.2c0,0,0-0.1,0-0.1c0-0.6-6.3-6.9-6.3-6.9c-0.6-0.6-1.5-0.6-2.1,0
	c-0.6,0.5-0.6,1.4-0.1,2c0,0,0,0,0.1,0.1l3.3,3.4H1.3c0,1,0,2,0.1,2.9H28l-3.5,3.4c-0.1,0.1-0.2,0.2-0.2,0.3
	c-0.7-0.8-1.4-1.5-1.4-1.5c-0.3-0.4-0.9-0.4-1.2,0c0,0,0,0,0,0c-0.3,0.4-0.4,1,0,1.3l2,2.2H1.7c0,0.6,0.1,1.2,0.2,1.9h21.9l-2.1,2.1
	c-0.3,0.4-0.4,0.9,0,1.3c0.3,0.4,0.9,0.4,1.2,0c0,0,0,0,0,0l3.5-3.6c0.2-0.2,0.3-0.5,0.3-0.7c0,0,0,0,0-0.1c0-0.1-0.2-0.4-0.6-0.8
	c0.1-0.1,0.3-0.2,0.4-0.3L32.5,182.2z"/>
<path class="st5" d="M31.5,221L31.5,221c-0.6,0.5-0.6,1.4-0.1,2c0,0,0,0,0,0.1c0.6,0.6,1.5,0.6,2.1,0l5.9-5.7
	c0.3-0.3,0.5-0.7,0.4-1.2c0,0,0-0.1,0-0.1c0-0.6-6.3-6.9-6.3-6.9c-0.4-0.4-0.9-0.5-1.3-0.4c-0.6-0.9-3.7-4.2-3.7-4.2
	c-0.3-0.4-0.9-0.4-1.2,0c0,0,0,0,0,0c-0.4,0.4-0.4,1,0,1.3l2,2.2H4.6c0,0,0,0,0,0.1h0.1c0.1,0.6,0.3,1.2,0.4,1.8h24.2l0,0l-2.1,2.1
	c-0.4,0.4-0.4,1,0,1.3c0.3,0.4,0.9,0.4,1.2,0c0,0,0,0,0,0l2.6-2.7c0.1,0.2,0.2,0.3,0.3,0.5c0,0,0,0,0,0.1l3.3,3.4H6.3
	c0.3,1,0.5,2,0.8,2.9h27.8L31.5,221z"/>
<g>
	<path class="st5" d="M47.6,229.2l-2.1,2.1c-0.3,0.4-0.4,0.9,0,1.3c0.3,0.4,0.9,0.4,1.2,0c0,0,0,0,0,0l3.5-3.6
		c0.2-0.2,0.3-0.5,0.3-0.7c0,0,0,0,0-0.1c0-0.4-3.8-4.4-3.8-4.4c-0.3-0.4-0.9-0.4-1.2,0c0,0,0,0,0,0c-0.3,0.4-0.4,0.9,0,1.3l2,2.2
		H10.3c0.2,0.6,0.5,1.3,0.7,1.9H47.6z"/>
</g>
</svg>
