<svg width="1637" height="1637" viewBox="0 0 1637 1637" fill="none" xmlns="http://www.w3.org/2000/svg">
<g opacity="0.2">
<path d="M1385.85 271.608L842.639 86.486C836.085 84.2479 827.293 83.1289 818.5 83.1289C809.708 83.1289 800.915 84.2479 794.361 86.486L251.145 271.608C237.877 276.084 227.006 291.431 227.006 305.499V1076.68C227.006 1090.75 236.118 1109.29 247.149 1118.08L798.197 1547.48C803.793 1551.79 810.986 1554.03 818.34 1554.03C825.694 1554.03 833.048 1551.79 838.483 1547.48L1389.53 1118.08C1400.56 1109.45 1409.67 1090.91 1409.67 1076.68V305.499C1409.99 291.431 1399.12 276.244 1385.85 271.608ZM1294.89 1045.99L818.5 1417.19L342.107 1045.99V362.41L818.5 199.989L1294.89 362.41V1045.99ZM644.089 845.357L520.195 969.251C517.815 971.655 516.48 974.901 516.48 978.283C516.48 981.666 517.815 984.912 520.195 987.316L574.549 1041.67C579.504 1046.62 587.657 1046.62 592.613 1041.67L716.507 917.775C805.551 973.887 924.489 963.176 1002.02 885.643C1092.03 795.64 1092.03 649.844 1002.02 559.841C912.02 469.838 766.225 469.838 676.222 559.841C598.688 637.375 587.977 756.473 644.089 845.357ZM748.64 632.259C798.677 582.222 879.728 582.222 929.605 632.259C979.642 682.297 979.642 763.347 929.605 813.225C879.568 863.262 798.517 863.262 748.64 813.225C698.762 763.187 698.603 682.297 748.64 632.259Z" fill="#6121FF"/>
</g>
</svg>
