<svg width="427" height="853" viewBox="0 0 427 853" fill="none" xmlns="http://www.w3.org/2000/svg">
<g opacity="0.5" clip-path="url(#clip0_83_48)">
<path d="M35.2858 157.793C-2.00025 148.087 -39.515 139.281 -77.2258 131.383C-80.6621 130.65 -84.2353 130.896 -87.5385 132.094C-90.8417 133.292 -93.7419 135.394 -95.909 138.159C-195.682 267.759 -211.593 395.159 -198.98 492.418C-193.805 533.882 -182.445 574.336 -165.28 612.434C-158.352 627.422 -151.449 639.333 -145.512 647.849C-142.571 652.114 -140.002 655.309 -137.917 657.548C-137.034 658.576 -136.055 659.519 -134.994 660.362C-133.739 660.838 -132.446 661.208 -131.129 661.468C-128.113 662.173 -124.062 662.8 -118.898 663.215C-108.588 664.079 -94.7679 664.087 -78.3432 662.627C-36.7674 658.443 3.94686 648.053 42.4437 631.804C132.96 594.131 235.355 516.618 297.705 365.412C299.021 362.154 299.394 358.59 298.779 355.129C298.165 351.669 296.589 348.451 294.232 345.844C276.398 325.956 246.045 292.805 215.084 261.645C183.464 229.834 153.328 202.393 135.393 192.038C117.493 181.703 78.6261 169.306 35.2663 157.827L35.2858 157.793ZM46.3867 117.818C88.7851 129.012 132.895 142.545 156.2 156C179.505 169.455 213.28 200.889 244.173 232.01C275.813 263.788 306.685 297.598 324.716 317.691C332.237 326.124 337.225 336.507 339.11 347.648C340.994 358.789 339.697 370.236 335.369 380.673C268.197 543.506 156.785 628.602 57.3082 670.018C14.9652 687.856 -29.8153 699.239 -75.537 703.786C-91.3502 705.364 -107.269 705.59 -123.121 704.459C-135.152 703.458 -147.424 701.236 -155.8 696.4C-164.176 691.564 -172.203 682.066 -179.12 672.128C-188.024 658.966 -195.789 645.067 -202.328 630.583C-221.25 588.713 -233.782 544.241 -239.506 498.652C-253.378 391.794 -235.388 252.761 -127.957 113.172C-121.082 104.205 -111.818 97.3584 -101.227 93.4197C-90.6368 89.481 -79.1501 88.6097 -68.0867 90.9058C-29.7179 98.9541 8.45105 107.927 46.3867 117.818Z" fill="url(#paint0_linear_83_48)" fill-opacity="0.5"/>
<path d="M80.1123 404.787C74.0665 415.272 64.9176 423.623 53.9267 428.69C42.9357 433.757 30.6438 435.29 18.7448 433.079L-7.0568 507.799C-7.9951 510.516 -9.52282 512.993 -11.5305 515.051C-13.5381 517.109 -15.976 518.698 -18.6697 519.704C-21.3633 520.709 -24.2459 521.106 -27.1111 520.867C-29.9763 520.628 -32.7532 519.758 -35.2428 518.32L-61.8575 502.954C-64.3421 501.514 -66.4778 499.543 -68.1121 497.181C-69.7464 494.819 -70.8389 492.126 -71.3115 489.293C-71.7842 486.461 -71.6253 483.559 -70.8462 480.794C-70.0671 478.03 -68.6871 475.472 -66.8047 473.303L-15.0302 413.579C-21.9987 405.428 -26.5927 395.519 -28.3103 384.934C-30.0278 374.348 -28.8027 363.495 -24.769 353.559C-20.7352 343.623 -14.0479 334.986 -5.43786 328.594C3.17218 322.202 13.3737 318.299 24.0518 317.312C34.7299 316.325 45.4738 318.293 55.1094 322.999C64.7451 327.706 72.9017 334.97 78.6879 343.999C84.4741 353.027 87.6672 363.473 87.9185 374.193C88.1697 384.914 85.4693 395.498 80.1123 404.787Z" fill="url(#paint1_linear_83_48)" fill-opacity="0.5"/>
</g>
<defs>
<linearGradient id="paint0_linear_83_48" x1="156.2" y1="156" x2="-155.8" y2="696.4" gradientUnits="userSpaceOnUse">
<stop stop-color="#EFDDFF"/>
<stop offset="0.0001" stop-color="#AD49FF"/>
<stop offset="1" stop-color="#3308FF" stop-opacity="0.79"/>
</linearGradient>
<linearGradient id="paint1_linear_83_48" x1="58.6845" y1="324.901" x2="-48.5502" y2="510.637" gradientUnits="userSpaceOnUse">
<stop stop-color="#EFDDFF"/>
<stop offset="0.0001" stop-color="#AD49FF"/>
<stop offset="1" stop-color="#3308FF" stop-opacity="0.79"/>
</linearGradient>
<clipPath id="clip0_83_48">
<rect width="624" height="624" fill="white" transform="translate(-114) rotate(30)"/>
</clipPath>
</defs>
</svg>
